<svg width="41" height="48" viewBox="0 0 41 48" fill="none" xmlns="http://www.w3.org/2000/svg">
<path id="Logo" d="M16 0C7.16344 0 0 7.16344 0 16V30.5882C0 35.0065 3.58172 38.5882 8 38.5882H9.4186V17.4118C9.4186 12.9935 13.0003 9.41177 17.4186 9.41177H26.1366C28.8675 9.41177 31.0814 11.624 31.0814 14.3529C31.0814 17.0819 28.8675 19.2941 26.1366 19.2941H21.6594C19.0604 19.2941 16.9535 21.401 16.9535 24C16.9535 26.599 19.0604 28.7059 21.6594 28.7059H26.1366C28.8675 28.7059 31.0814 30.9181 31.0814 33.6471C31.0814 36.376 28.8675 38.5882 26.1366 38.5882H9.4186V40C9.4186 44.4183 13.0003 48 17.4186 48H26.3721V47.9981C34.1962 47.8725 40.5 41.4954 40.5 33.6471C40.5 29.933 39.0883 26.5485 36.7719 24C39.0883 21.4515 40.5 18.067 40.5 14.3529C40.5 6.50461 34.1962 0.127552 26.3721 0.00188985V0H16Z" fill="#0098D9"/>
</svg>
